Coordinates
version=1
nRows=14
nColumns=24
inDegrees=yes

Units are S.I. units (second, meters, Newtons, ...)
Angles are in degrees.

endheader
time	pelvis_tilt	pelvis_list	pelvis_rotation	pelvis_tx	pelvis_ty	pelvis_tz	hip_flexion_r	hip_adduction_r	hip_rotation_r	knee_angle_r	ankle_angle_r	subtalar_angle_r	mtp_angle_r	hip_flexion_l	hip_adduction_l	hip_rotation_l	knee_angle_l	ankle_angle_l	subtalar_angle_l	mtp_angle_l	lumbar_extension	lumbar_bending	lumbar_rotation
      0.62500000	     -1.66048613	      6.68809377	      1.19289418	     -0.83178077	      1.04624834	      0.30216537	     25.91890026	     -2.55728862	    -11.69840185	      1.70703183	     11.07626591	      1.89133944	      0.03174740	    -20.70292780	     11.37542113	     -3.83210946	     -1.45246544	      2.20508756	      7.63632433	      0.37394545	      5.59828228	     -5.40698122	     -3.08394271
      0.62916667	     -1.65897524	      6.67014517	      1.26194985	     -0.82524692	      1.04596892	      0.30197747	     25.83009575	     -2.51833359	    -11.57777756	      1.33044464	     11.11688124	      1.87175324	      0.03100229	    -20.83211010	     11.30915622	     -3.82782738	     -1.88396424	      2.06185813	      7.61079837	      0.37985959	      5.68502472	     -5.34357487	     -3.09722359
      0.63333333	     -1.64835205	      6.58085493	      1.29273894	     -0.81846074	      1.04569362	      0.30185932	     25.68559214	     -2.38498609	    -11.30394490	      0.97510704	     11.46388507	      1.62182662	      0.02730536	    -20.98510515	     11.17461911	     -3.89526652	     -2.26236287	      1.46046215	      7.52282873	      0.41253477	      5.74472544	     -5.19811590	     -3.16772869
      0.63750000	     -1.58730118	      6.52463153	      1.31490886	     -0.81183119	      1.04547487	      0.30176152	     25.48775436	     -2.28724380	    -10.87649360	      0.62372844	     11.57646191	      1.23610514	      0.01766674	    -21.16842197	     11.07342169	     -3.92417092	     -2.67661179	      0.98445201	      7.36298011	      0.48337575	      5.73783859	     -5.08904864	     -3.24163298
      0.64166667	     -1.49930644	      6.47681365	      1.33056234	     -0.80519109	      1.04533468	      0.30170912	     25.25230855	     -2.19349923	    -10.42357345	      0.27602155	     11.52786461	      0.60581291	      0.00078936	    -21.34662522	     10.97490387	     -3.94411385	     -3.15626629	      0.55973366	      7.22287994	      0.62494968	      5.72093448	     -4.99346965	     -3.30861118
      0.64583333	     -1.49543843	      6.43567758	      1.44122419	     -0.79849212	      1.04514378	      0.30149621	     25.10699158	     -2.15544026	    -10.23785929	     -0.10999247	     11.49605936	      0.58399737	      0.00048954	    -21.41246356	     10.85667370	     -3.92774679	     -3.71738859	      0.45868857	      7.19699954	      0.64175784	      5.78979528	     -4.92591628	     -3.31439927
      0.65000000	     -1.47959723	      6.39243758	      1.55497290	     -0.79181397	      1.04498835	      0.30128529	     24.93654787	     -2.11764172	    -10.01339883	     -0.47699860	     11.46786627	      0.51687275	      0.00031928	    -21.47081893	     10.73015164	     -3.93404044	     -4.30658824	      0.24712935	      7.17115083	      0.66128753	      5.86408603	     -4.82293065	     -3.33181613
      0.65416667	     -1.37529373	      6.25239449	      1.47784203	     -0.78485521	      1.04487573	      0.30144486	     24.62022884	     -1.88661915	     -9.34768597	     -0.73719057	     11.28222798	     -0.39473469	     -0.00861912	    -21.62454368	     10.54735513	     -4.19171614	     -4.79764408	     -0.79320362	      7.10966744	      0.83666405	      5.87739828	     -4.59530529	     -3.45918824
      0.65833333	     -1.37379219	      6.19234628	      1.61595855	     -0.77811711	      1.04477240	      0.30124374	     24.43429836	     -1.84367062	     -9.13069651	     -1.06209795	     11.20266404	     -0.42283230	     -0.00808295	    -21.61554797	     10.38463661	     -4.19475421	     -5.48572492	     -0.90046114	      7.06851791	      0.86003672	      5.91682138	     -4.52714268	     -3.46272181
      0.66250000	     -1.30121222	      6.02221242	      1.60847884	     -0.77111119	      1.04473004	      0.30137206	     24.11428357	     -1.60985628	     -8.55315864	     -1.24060444	     10.61457119	     -1.32506910	     -0.01319090	    -21.67974205	     10.13192749	     -4.48980573	     -6.09672101	     -1.84498316	      7.09423031	      1.08674694	      5.92847988	     -4.27191924	     -3.56859802
      0.66666667	     -1.28583423	      5.95284407	      1.72460046	     -0.76439766	      1.04469888	      0.30121236	     23.90835125	     -1.55427056	     -8.34146821	     -1.54240414	     10.52335411	     -1.37020059	     -0.01136283	    -21.62805770	      9.95695576	     -4.50828858	     -6.87411139	     -1.96001272	      7.05610437	      1.12223885	      5.96929378	     -4.19635134	     -3.57239833
      0.67083333	     -1.22765321	      5.75054078	      1.72246531	     -0.75733150	      1.04471135	      0.30135615	     23.60028832	     -1.29477643	     -7.90137738	     -1.71331735	      9.78033085	     -2.18683471	     -0.00735294	    -21.61655337	      9.65818535	     -4.89580507	     -7.58116616	     -2.91072738	      7.14458770	      1.38125368	      6.01908167	     -3.90260419	     -3.66598165
      0.67500000	     -1.16723576	      5.57428158	      1.77318169	     -0.75040615	      1.04479149	      0.30149611	     23.28113607	     -1.08205529	     -7.42420824	     -1.86430158	      9.16977319	     -3.01569979	      0.01237972	    -21.56084015	      9.35523126	     -5.20700610	     -8.40092522	     -3.47889688	      7.24288817	      1.76267743	      6.00438715	     -3.68978493	     -3.72178212
      0.67916667	     -1.13729093	      5.40868710	      1.83794034	     -0.74351886	      1.04486990	      0.30152981	     23.02224625	     -0.90127417	     -7.13952185	     -2.07324517	      8.65618260	     -3.47414665	      0.03848964	    -21.44416742	      9.06617520	     -5.44295406	     -9.27128040	     -4.03335672	      7.32970767	      2.11119591	      6.04900479	     -3.48681689	     -3.75310621
